<svg xmlns="http://www.w3.org/2000/svg" viewBox="0 0 70 125"><title>OAR-6321P</title><g id="a-color"><path d="M20.7,14.68c-.3.07-.48.18-.36.36l-.1.67a2.21,2.21,0,0,0-.62,1.6,1.47,1.47,0,0,0-.26.67l-.21.4S17.8,20,17,25.34a205.28,205.28,0,0,0-1.39,22.28l.25,11.91s.62,11.93,1,14.58c0,0,1.52,25.79,1.2,33.41,0,0,0,1.83-.08,3.34,0,0,1.13,2,5.54,2s6.64-.72,7.46-2c0,0,.24-7.33.78-12.22S33.09,84.23,33.2,81c0,0-.22-10.55.22-14.8,0,0,0-.07.06-.07s.06.09.06.09a296.52,296.52,0,0,1,6.67,44.1l.24,3.56s.11,1.88,5.67,1.9l.4,0c8.78,0,7.81-4.73,7.81-4.73C51.94,93.8,51,73.12,51,73.12l-.8-15.28c-.37-3.51-.31-17.14-.31-17.14s0-.11,0-.16a120.29,120.29,0,0,0-.48-15.09,20.13,20.13,0,0,0-1.77-6.21L47.48,19a4.17,4.17,0,0,0-.33-.58v-1A2.6,2.6,0,0,0,46.85,16l-.16-1s0-.31-.8-.4a200.32,200.32,0,0,0-25.2,0s-.85.16.41.36a58.24,58.24,0,0,0,9,.67l10-.08s7,0,6.39-.77" style="fill:#dcdddd"/><path d="M20.7,14.68c-.3.07-.48.18-.36.36l-.1.67a2.21,2.21,0,0,0-.62,1.6,1.47,1.47,0,0,0-.26.67l-.21.4S17.8,20,17,25.34a205.28,205.28,0,0,0-1.39,22.28l.25,11.91s.62,11.93,1,14.58c0,0,1.52,25.79,1.2,33.41,0,0,0,1.83-.08,3.34,0,0,1.13,2,5.54,2s6.64-.72,7.46-2c0,0,.24-7.33.78-12.22S33.09,84.23,33.2,81c0,0-.22-10.55.22-14.8,0,0,0-.07.06-.07s.06.09.06.09a296.52,296.52,0,0,1,6.67,44.1l.24,3.56s.11,1.88,5.67,1.9l.4,0c8.78,0,7.81-4.73,7.81-4.73C51.94,93.8,51,73.12,51,73.12l-.8-15.28c-.37-3.51-.31-17.14-.31-17.14s0-.11,0-.16a120.29,120.29,0,0,0-.48-15.09,20.13,20.13,0,0,0-1.77-6.21L47.48,19a4.17,4.17,0,0,0-.33-.58v-1A2.6,2.6,0,0,0,46.85,16l-.16-1s0-.31-.8-.4a200.32,200.32,0,0,0-25.2,0s-.85.16.41.36a58.24,58.24,0,0,0,9,.67l10-.08s7,0,6.39-.77" style="fill:none;stroke:#494b4e;stroke-width:0.214000001549721px"/><path d="M39.33,19.57s-.24-.94-.24-.43-.31,2,.16,2.16.27-1.1.27-1.1" style="fill:none;stroke:#494b4e;stroke-width:0.028000000864267px"/><path d="M29.5,21.18s-.2-2-.35-1.3c0,0-.27,4,1.26,16.82,0,0-.12.47-.63-.9,0,0-.47-3.34-.78-3.07s-.43,1.42.08,4.21" style="fill:none;stroke:#494b4e;stroke-width:0.028000000864267px"/><path d="M32,19.61s.16-.31.23.24a19.5,19.5,0,0,0,0,4.91" style="fill:none;stroke:#494b4e;stroke-width:0.028000000864267px"/><path d="M31.82,19.84s-.24-.75-.28-.31c0,0-.24,2.71-.55,2.95,0,0-.47.2-.55-.39s.08-.12.08-.12a9.15,9.15,0,0,1-.08-2.2s.2-.83-.27-.16a5.25,5.25,0,0,0-.31,2.48" style="fill:none;stroke:#494b4e;stroke-width:0.028000000864267px"/><path d="M30.33,22.79s0-.42.3,2.25c0,0,0,.07,0,.11.27,2.79.27,7.15.27,7.15" style="fill:none;stroke:#494b4e;stroke-width:0.028000000864267px"/><path d="M35.12,19.69s-.27-.59-.39-.24a14,14,0,0,0,.47,3.85,40.69,40.69,0,0,1,.67,4.24c.16.9.59,7,.59,7" style="fill:none;stroke:#494b4e;stroke-width:0.028000000864267px"/><path d="M35.32,20.16s.27.55.35.12.2-1.42.31-.83.39,4.32.39,4.32" style="fill:none;stroke:#494b4e;stroke-width:0.028000000864267px"/><path d="M36.66,23.85a2.91,2.91,0,0,0,.2-1.34c0-.2.27-3.07.27-3.07a.44.44,0,0,1,.67.35c.16.63.2,2.83.31,4.36" style="fill:none;stroke:#494b4e;stroke-width:0.028000000864267px"/><path d="M40.51,19.37s-.31-.83-.31-.28-.12,3.14.19,3.34a.38.38,0,0,0,.51,0A5.16,5.16,0,0,0,40.82,20" style="fill:none;stroke:#494b4e;stroke-width:0.028000000864267px"/><path d="M42.08,19.53A9.08,9.08,0,0,1,42.59,22" style="fill:none;stroke:#494b4e;stroke-width:0.028000000864267px"/><path d="M33.91,19.53s-.12-.75-.2-.24a3.49,3.49,0,0,0,0,1.85,6.61,6.61,0,0,1,.24,1.18l.12-1.1" style="fill:none;stroke:#494b4e;stroke-width:0.028000000864267px"/><path d="M28.79,21.3s-.08-.83-.12-.47a74.17,74.17,0,0,0,.31,9" style="fill:none;stroke:#494b4e;stroke-width:0.028000000864267px"/><path d="M27.11,21s-.08-3,.31-1.34-.12,1.93,0,5.31a35.61,35.61,0,0,1-.16,5.74" style="fill:none;stroke:#494b4e;stroke-width:0.028000000864267px"/><path d="M25.81,19.81s.08-.9.27-.39a23.18,23.18,0,0,1,.23,3.89c0,.86-.16.39-.35,5.85" style="fill:none;stroke:#494b4e;stroke-width:0.028000000864267px"/><path d="M25.69,21.18s-.35,9.87-1.18,12.7" style="fill:none;stroke:#494b4e;stroke-width:0.028000000864267px"/><path d="M23.49,19.84s.19-1.61.39-.2c0,0,.16,11.32-2.47,20.12" style="fill:none;stroke:#494b4e;stroke-width:0.028000000864267px"/><path d="M24.55,20.08s0-1.61.24-.75a7.93,7.93,0,0,1-.16,2.75c0,.2-.59-.75-.51-.94" style="fill:none;stroke:#494b4e;stroke-width:0.028000000864267px"/><path d="M23.06,20.32S21.6,25,21.64,23.26s0-.12,0-.12L22.35,20s.31-.86.2-.94-.47.51-.47.51-2.32,9.2-3.89,12.14" style="fill:none;stroke:#494b4e;stroke-width:0.028000000864267px"/><path d="M21,19.65s-.16-1.34-.2-1a19.19,19.19,0,0,1-.55,2.75,2.5,2.5,0,0,0-.2.86s-.08,1.06.39.08" style="fill:none;stroke:#494b4e;stroke-width:0.028000000864267px"/><path d="M20.31,19.33s.39-.78.12-.59a1.29,1.29,0,0,0-.59.71c-.08.31-2.52,5.58-2.95,8.49" style="fill:none;stroke:#494b4e;stroke-width:0.028000000864267px"/><path d="M21.33,19.73s.08.24.31-.2a4.8,4.8,0,0,0,.31-.67s.2-.08.08.39-.83,2.44-.83,2.44" style="fill:none;stroke:#494b4e;stroke-width:0.028000000864267px"/><path d="M23.88,35.33s-.94.24-.16,7c0,0,1.49,9.36,1.34,12.34" style="fill:none;stroke:#494b4e;stroke-width:0.028000000864267px"/><path d="M42.59,25.82S44.48,32.89,44,36.2s-.94,9.28-.94,9.28" style="fill:none;stroke:#494b4e;stroke-width:0.028000000864267px"/><path d="M30.83,15.89s-.18-.36-.26,0,0,2.84,0,2.84l.18.13.1-1.14s.08-.1.1.13" style="fill:none;stroke:#494b4e;stroke-linecap:round;stroke-width:0.028000000864267px"/><path d="M31,16.33s0,.34.18.21.13-.7.13-.7.1-.18.16.23-.05,2.5-.05,2.5.1.57.31.23" style="fill:none;stroke:#494b4e;stroke-linecap:round;stroke-width:0.028000000864267px"/><path d="M31.89,16.62l.18-.7a14.56,14.56,0,0,1,.08,2.48c-.13.31-.23-1.55-.23-1.55" style="fill:none;stroke:#494b4e;stroke-linecap:round;stroke-width:0.028000000864267px"/><path d="M32.48,16.2s.08-.49.15-.36-.05,2.92-.05,2.92" style="fill:none;stroke:#494b4e;stroke-linecap:round;stroke-width:0.028000000864267px"/><path d="M33.28,16.33l-.13-.44a6.27,6.27,0,0,0,0,2l0,.8" style="fill:none;stroke:#494b4e;stroke-linecap:round;stroke-width:0.028000000864267px"/><path d="M33.67,17c0-.08.05-1.62.15-1a23.3,23.3,0,0,1,.05,2.58v.26" style="fill:none;stroke:#494b4e;stroke-linecap:round;stroke-width:0.028000000864267px"/><path d="M34.26,18.81a24,24,0,0,1,0-3c.13-.05.23.26.23.26" style="fill:none;stroke:#494b4e;stroke-linecap:round;stroke-width:0.028000000864267px"/><path d="M29.8,16.8s-.13-1.32-.26-.88a24.21,24.21,0,0,0-.13,2.84l.18-.44" style="fill:none;stroke:#494b4e;stroke-linecap:round;stroke-width:0.028000000864267px"/><path d="M29,16s.13-.28.13-.16S29,18,29,18l0,.72-.08-2.27" style="fill:none;stroke:#494b4e;stroke-linecap:round;stroke-width:0.028000000864267px"/><path d="M20.85,15.25s.26-.39.26-.21a8.91,8.91,0,0,0-.49,1.57L20.33,18l.23-2" style="fill:none;stroke:#494b4e;stroke-linecap:round;stroke-width:0.028000000864267px"/><path d="M19.92,17.88s.26-1.21.52-2,.05-.15.05-.15l.1-.59" style="fill:none;stroke:#494b4e;stroke-linecap:round;stroke-width:0.028000000864267px"/><path d="M21.6,15.46s.23-.31.23-.13-.62,2-.62,2.27-.39.85-.21.83" style="fill:none;stroke:#494b4e;stroke-linecap:round;stroke-width:0.028000000864267px"/><path d="M22.37,15.51s-.05-.49-.26.05a26.23,26.23,0,0,0-.54,2.73L22.19,16" style="fill:none;stroke:#494b4e;stroke-linecap:round;stroke-width:0.028000000864267px"/><path d="M22.91,15.71s-.05-.41-.16-.23a9.69,9.69,0,0,0-.62,2.79c-.08,1.27.41-1.62.41-1.62" style="fill:none;stroke:#494b4e;stroke-linecap:round;stroke-width:0.028000000864267px"/><path d="M23.07,16s.08.23.15,0a2.55,2.55,0,0,1,.26-.54s-.57,2.27-.57,2.68" style="fill:none;stroke:#494b4e;stroke-linecap:round;stroke-width:0.028000000864267px"/><path d="M23.94,16.69l.16-1,.15.08s-.54,2.71-.54,2.91" style="fill:none;stroke:#494b4e;stroke-linecap:round;stroke-width:0.028000000864267px"/><path d="M23.69,16.8l-.26,1.5.13-1.83s.23-.59.21-.23" style="fill:none;stroke:#494b4e;stroke-linecap:round;stroke-width:0.028000000864267px"/><path d="M28.77,16.2a25.16,25.16,0,0,0-.31,2.58s-.1.1-.13-.05,0-1.65,0-1.65" style="fill:none;stroke:#494b4e;stroke-linecap:round;stroke-width:0.028000000864267px"/><path d="M28.23,16.2s-.05-.49-.13-.21a9,9,0,0,0-.36,2.68l-.21-.18" style="fill:none;stroke:#494b4e;stroke-linecap:round;stroke-width:0.028000000864267px"/><path d="M27,15.89a10.5,10.5,0,0,0-.49,2.53s-.28.57-.26.28A15,15,0,0,1,26.4,17" style="fill:none;stroke:#494b4e;stroke-linecap:round;stroke-width:0.028000000864267px"/><path d="M26.27,16.1l-.54,2.35A6.54,6.54,0,0,1,26,16.38" style="fill:none;stroke:#494b4e;stroke-linecap:round;stroke-width:0.028000000864267px"/><path d="M25.05,16.31a10.12,10.12,0,0,0-.46,2c0,.72-.1.36-.1.36s.28-2.19.34-2.27l.23-.36" style="fill:none;stroke:#494b4e;stroke-linecap:round;stroke-width:0.028000000864267px"/><path d="M25.73,16a4.2,4.2,0,0,0-.34,2.61A3.64,3.64,0,0,1,25.47,16l.12-.3" style="fill:none;stroke:#494b4e;stroke-linecap:round;stroke-width:0.028000000864267px"/><path d="M34.52,16.23l.08,1.16.15,1.44a8.73,8.73,0,0,0,.13-1.55" style="fill:none;stroke:#494b4e;stroke-linecap:round;stroke-width:0.028000000864267px"/><path d="M35.27,15.89a16.25,16.25,0,0,0,.18,2.68c.21,1.06,0-1.86,0-1.86" style="fill:none;stroke:#494b4e;stroke-linecap:round;stroke-width:0.028000000864267px"/><path d="M35.55,16.25s.31-.46.31-.26.05,2.63.05,2.63" style="fill:none;stroke:#494b4e;stroke-linecap:round;stroke-width:0.028000000864267px"/><path d="M36.25,15.87a5.37,5.37,0,0,0-.18,1.83l.05,1.16.18-.41" style="fill:none;stroke:#494b4e;stroke-linecap:round;stroke-width:0.028000000864267px"/><path d="M36.48,16a12.6,12.6,0,0,1,.18,2.37c-.1.57.05.54.05.54l.15-1.14" style="fill:none;stroke:#494b4e;stroke-linecap:round;stroke-width:0.028000000864267px"/><path d="M37.2,16.69V16s.21-.08.23.57-.05,2.06-.05,2.06l0-1.37-.2-.13v.23" style="fill:none;stroke:#494b4e;stroke-linecap:round;stroke-width:0.028000000864267px"/><path d="M37.77,16.25c0-.13.08-.75.13-.36s.05,2.55.05,2.55l-.21-1.63" style="fill:none;stroke:#494b4e;stroke-linecap:round;stroke-width:0.028000000864267px"/><path d="M38.23,16.2s.21-.46.21-.18,0,2.68,0,2.68.1.16.15,0" style="fill:none;stroke:#494b4e;stroke-linecap:round;stroke-width:0.028000000864267px"/><path d="M38.85,15.95s.08-.54.15-.1a13.21,13.21,0,0,1,.1,1.86c0,.62-.05,1.11-.05,1.11s-.16-2.5-.18-2.61" style="fill:none;stroke:#494b4e;stroke-linecap:round;stroke-width:0.028000000864267px"/><path d="M39.42,15.77s.28,0,.28.49,0,2.66,0,2.66-.1-.7-.13-.85-.26.18-.26.18" style="fill:none;stroke:#494b4e;stroke-linecap:round;stroke-width:0.028000000864267px"/><path d="M40.25,15.82l-.18.21S40,16,40,17s.05,1.7.05,1.7l.21-1,0,.93" style="fill:none;stroke:#494b4e;stroke-linecap:round;stroke-width:0.028000000864267px"/><path d="M26.18,30c.67,6.41,1.82,15.61,3.15,19,0,0,1.94,8.81,2.93,12.28,0,0,.51,1.67,1.28,4.89" style="fill:none;stroke:#494b4e;stroke-width:0.108999997377396px"/><path d="M35.6,50.72a14.15,14.15,0,0,1-1,8.38s-.87,1.52-.44-2.07" style="fill:none;stroke:#494b4e;stroke-width:0.028000000864267px"/><path d="M37.27,56.67s-.73,5.25-1.4,6.48c0,0-1.45,1.56-.84-1.34" style="fill:none;stroke:#494b4e;stroke-width:0.028000000864267px"/><path d="M41.23,48s.89,8,.28,9.72c0,0-1,2-1.17,0a12.63,12.63,0,0,1,.17-3.46" style="fill:none;stroke:#494b4e;stroke-width:0.028000000864267px"/><path d="M43.13,50.25s.17,9.5,1.06,11,1.28.56,1.28.56" style="fill:none;stroke:#494b4e;stroke-width:0.028000000864267px"/><path d="M43.8,65.16s.56,5,.11,6.76-1.12.45-1.12.45" style="fill:none;stroke:#494b4e;stroke-width:0.028000000864267px"/><path d="M44.81,74s-.56,3-1.28,2.57.11-1,.11-1" style="fill:none;stroke:#494b4e;stroke-width:0.028000000864267px"/><path d="M45.26,85.38s-.11,3.45-1,4.86A13.19,13.19,0,0,0,43,96.15s.05,4.36,1.73,4.8,1.4-3.18,1.4-3.18" style="fill:none;stroke:#494b4e;stroke-width:0.028000000864267px"/><path d="M18.51,61.93s-.54,2.72.65,9.9a121.62,121.62,0,0,1,1.09,17.3" style="fill:none;stroke:#494b4e;stroke-width:0.028000000864267px"/><path d="M24.82,66.39c-.76-4-1.09-6.31-1.09-6.31s-.65-4.14,2.07-1.53" style="fill:none;stroke:#494b4e;stroke-width:0.028000000864267px"/><path d="M18.07,109.89a8.79,8.79,0,0,0,4.75,2c2.46,0,2.56,0,2.56,0s3.6-.17,5.57-2" style="fill:none;stroke:#494b4e;stroke-linecap:round;stroke-width:0.071999996900558px;stroke-dasharray:0.20000000298023224,0.1599999964237213"/><path d="M18.07,109.43a8.79,8.79,0,0,0,4.75,2c2.46,0,2.56,0,2.56,0s3.6-.24,5.57-2.08" style="fill:none;stroke:#494b4e;stroke-linecap:round;stroke-width:0.071999996900558px;stroke-dasharray:0.20000000298023224,0.1599999964237213"/><path d="M44.51,33.72a57.12,57.12,0,0,0-.19-6.6C43.93,23.93,43.15,20,43.15,20" style="fill:none;stroke:#494b4e;stroke-width:0.071999996900558px"/><path d="M43.06,34.18l1.51-.28.12-.4a55.89,55.89,0,0,0-.18-6.5c-.38-3.19-1.19-7.12-1.19-7.12l0-.15-1.75.14" style="fill:none;stroke:#494b4e;stroke-width:0.071999996900558px;stroke-dasharray:0.07999999821186066,0.07999999821186066"/><polygon points="43.8 27.95 43.12 19.99 41.71 20.06 42.46 28.32 42.52 28.8 43.06 33.91 44.47 33.73 43.85 28.44 43.8 27.95" style="fill:none;stroke:#494b4e;stroke-width:0.072999998927116px"/><path d="M26.75,15.85s-.32,9.05-.36,15.84" style="fill:none;stroke:#494b4e;stroke-width:0.108999997377396px"/><path d="M40.44,113.11s2,1.73,6,1.8,6.95-1.57,7.75-4" style="fill:none;stroke:#494b4e;stroke-linecap:round;stroke-width:0.071999996900558px;stroke-dasharray:0.20000000298023224,0.1599999964237213"/><path d="M40.44,112.59s2,1.73,6,1.8,6.91-1.79,7.72-4.24" style="fill:none;stroke:#494b4e;stroke-linecap:round;stroke-width:0.071999996900558px;stroke-dasharray:0.20000000298023224,0.1599999964237213"/><path d="M41.84,19.06s-.24-.47-.31-.27.24,1.34.24,2.12" style="fill:none;stroke:#494b4e;stroke-width:0.028000000864267px"/><path d="M45.66,18.27s.27-.63.94.91a54.22,54.22,0,0,1,2.55,12.54" style="fill:none;stroke:#494b4e;stroke-width:0.028000000864267px"/><path d="M43.11,16.51s-.1-1.13-.21-.39a8.38,8.38,0,0,0,.1,2v.49" style="fill:none;stroke:#494b4e;stroke-linecap:round;stroke-width:0.028000000864267px"/><path d="M42.33,16s.1-.67.15-.18.1,2.17.1,2.17v.62" style="fill:none;stroke:#494b4e;stroke-linecap:round;stroke-width:0.028000000864267px"/><path d="M41.87,16.1s.15-.59.18-.23.13,1.32.21,1.91-.26-.49-.26-.7" style="fill:none;stroke:#494b4e;stroke-linecap:round;stroke-width:0.028000000864267px"/><path d="M41.74,16.23l-.21-.36,0,2.63.08.28s.08.08.13-.05" style="fill:none;stroke:#494b4e;stroke-linecap:round;stroke-width:0.028000000864267px"/><path d="M40.5,15.69c.23.26.15-.05.15.62s.05,2.37.05,2.37.34-1,.34-1.08-.18-1-.18-1.06,0-.47,0-.47a.91.91,0,0,1,.13.31c0,.1.05,0,.05.31" style="fill:none;stroke:#494b4e;stroke-linecap:round;stroke-width:0.028000000864267px"/><path d="M41.15,18.19s.05.8.1.46-.05-2.94-.05-2.94" style="fill:none;stroke:#494b4e;stroke-linecap:round;stroke-width:0.028000000864267px"/><path d="M45.46,15.29a228.63,228.63,0,0,0-23.3-.11" style="fill:none;stroke:#494b4e;stroke-linecap:round;stroke-width:0.071999996900558px;stroke-dasharray:0.20000000298023224,0.1599999964237213"/><path d="M46.36,17.84s.31-.43,1.45,2.36" style="fill:none;stroke:#494b4e;stroke-width:0.028000000864267px"/><line x1="46.2" y1="15.12" x2="46.78" y2="17.66" style="fill:none;stroke:#494b4e;stroke-linecap:round;stroke-miterlimit:1;stroke-width:0.028000000864267px"/><path d="M19.6,17.38a17.23,17.23,0,0,0,4,.83s11.76.38,15.71.17c0,0,7.12-.24,7.77-.55" style="fill:none;stroke:#494b4e;stroke-linecap:round;stroke-width:0.071999996900558px;stroke-dasharray:0.20000000298023224,0.1599999964237213"/><path d="M19.35,18a22.74,22.74,0,0,0,6.7.88s10,.23,12.07.13c0,0,8.49-.15,9-.54" style="fill:none;stroke:#494b4e;stroke-linecap:round;stroke-width:0.071999996900558px;stroke-dasharray:0.20000000298023224,0.1599999964237213"/><path d="M20.23,15.71a31.61,31.61,0,0,0,6.09.83s15,.33,18-.23a11.23,11.23,0,0,0,2.48-.44" style="fill:none;stroke:#494b4e;stroke-linecap:round;stroke-width:0.071999996900558px;stroke-dasharray:0.20000000298023224,0.1599999964237213"/><path d="M28.15,9.2a18,18,0,0,0-.62,5.57c0,.32,0,.64,0,.95h.37q0-.46,0-.95a18.09,18.09,0,0,1,.62-5.57Z" style="fill:#575757"/><path d="M28.15,9.2a18,18,0,0,0-.62,5.57c0,.32,0,.64,0,.95h.37q0-.46,0-.95a18.09,18.09,0,0,1,.62-5.57Z" style="fill:#575757;stroke:#494b4e;stroke-width:0.108999997377396px"/><path d="M28.22,10.43c0-.2-.21-.59-.43-.47,0,0,.09-.41.46-.09a.55.55,0,0,1,.09.55.83.83,0,0,1-.14.19s.05,0,0-.18" style="fill:#575757"/><path d="M28.22,10.43c0-.2-.21-.59-.43-.47,0,0,.09-.41.46-.09a.55.55,0,0,1,.09.55.83.83,0,0,1-.14.19S28.24,10.59,28.22,10.43Z" style="fill:#575757;stroke:#494b4e;stroke-width:0.108999997377396px"/><path d="M28.2,10.45a.26.26,0,0,0-.44,0s-.2-.56.23-.41a.61.61,0,0,1,.21.41" style="fill:#575757"/><path d="M28.2,10.45a.26.26,0,0,0-.44,0s-.2-.56.23-.41A.61.61,0,0,1,28.2,10.45Z" style="fill:#575757;stroke:#494b4e;stroke-width:0.108999997377396px"/><path d="M25.51,9.2a18.08,18.08,0,0,1,.62,5.57c0,.32,0,.64,0,.95h-.37c0-.31,0-.62,0-.95a18.09,18.09,0,0,0-.62-5.57Z" style="fill:#575757"/><path d="M25.51,9.2a18.08,18.08,0,0,1,.62,5.57c0,.32,0,.64,0,.95h-.37c0-.31,0-.62,0-.95a18.09,18.09,0,0,0-.62-5.57Z" style="fill:#575757;stroke:#494b4e;stroke-width:0.108999997377396px"/><path d="M25.44,10.43c0-.2.2-.59.43-.47,0,0-.09-.41-.46-.09a.55.55,0,0,0-.08.55.82.82,0,0,0,.14.19s-.05,0,0-.18" style="fill:#575757"/><path d="M25.44,10.43c0-.2.2-.59.43-.47,0,0-.09-.41-.46-.09a.55.55,0,0,0-.08.55.82.82,0,0,0,.14.19S25.41,10.59,25.44,10.43Z" style="fill:#575757;stroke:#494b4e;stroke-width:0.108999997377396px"/><path d="M25.46,10.45a.26.26,0,0,1,.43,0s.21-.56-.23-.41a.6.6,0,0,0-.2.41" style="fill:#575757"/><path d="M25.46,10.45a.26.26,0,0,1,.43,0s.21-.56-.23-.41A.6.6,0,0,0,25.46,10.45Z" style="fill:#575757;stroke:#494b4e;stroke-width:0.108999997377396px"/></g><g id="no-change"><path d="M18.67,36.81c0-.44.11-.67.36-.65s.3.25.27.69-.11.65-.34.65h0c-.24,0-.3-.25-.28-.69M18,36.74C18,38,18.59,38,18.72,38a.76.76,0,0,0,.47-.11l0,.07.62,0L20,35.68l-.56,0-.06.09a.67.67,0,0,0-.41-.17H18.9c-.55,0-.82.47-.86,1.18m-1.76-1.29-.15,2.36.62,0,.1-1.66A.21.21,0,0,1,17.1,36h0a.21.21,0,0,1,.22.22l-.11,1.66.62,0L18,36.08a.64.64,0,0,0-.64-.62.66.66,0,0,0-.29,0l-.15.08-.07-.09-.5,0Z" style="fill:#575757"/></g><g id="b-color"><path d="M46.23,15.2l.38,3.6s2.2,5.94,2.53,17.81c0,0,0,15.62.66,27.82,0,0,1.21,21,2.75,36.84,0,0,.95,8,1.53,11.18a4.3,4.3,0,0,1-1.74,2.07l-1,.4c-.55-2.2-2-13.65-2-13.65-1.54-15.83-2.75-36.84-2.75-36.84-.66-12.2-.66-27.82-.66-27.82C45.6,24.74,43.4,18.8,43.4,18.8l-.29-3.11s2.35-.22,2.69-.33Z" style="fill:#fff"/><path d="M43.89,18.51s.19-.24.43.67a6,6,0,0,0,.75,1.65" style="fill:none;stroke:#494b4e;stroke-width:0.028000000864267px"/><path d="M43,18.78s.27-.63.78.31a40.67,40.67,0,0,1,2.75,10.26" style="fill:none;stroke:#494b4e;stroke-width:0.028000000864267px"/><path d="M44.28,18.39s.27-.35.47.2.91,1.61,1.26,2.48.83,2.44.83,2.44" style="fill:none;stroke:#494b4e;stroke-width:0.028000000864267px"/><path d="M44.73,15.69a6.45,6.45,0,0,1,.46,2.14l.08.62L45,16.9" style="fill:none;stroke:#494b4e;stroke-linecap:round;stroke-width:0.028000000864267px"/><path d="M44.5,15.74a17.62,17.62,0,0,1,.39,2.53c0,.93-.1.41-.1.41" style="fill:none;stroke:#494b4e;stroke-linecap:round;stroke-width:0.028000000864267px"/><path d="M44.09,15.82a12.18,12.18,0,0,1,.31,2.71c-.13.62-.18-.8-.23-.88" style="fill:none;stroke:#494b4e;stroke-linecap:round;stroke-width:0.028000000864267px"/><path d="M43.7,15.77A15.12,15.12,0,0,0,43.86,18c.18,1.32.05.16.05.16l-.1.49" style="fill:none;stroke:#494b4e;stroke-linecap:round;stroke-width:0.028000000864267px"/><path d="M43.29,15.84a17.84,17.84,0,0,1,.23,2.71c-.13.1-.26-1.11-.26-1.11l-.1.34" style="fill:none;stroke:#494b4e;stroke-linecap:round;stroke-width:0.028000000864267px"/><path d="M47.15,31.22s1.26,5,1.57,4.93.21-2.41.21-2.41" style="fill:none;stroke:#494b4e;stroke-width:0.028000000864267px"/><path d="M46.23,15.2l.38,3.6s2.2,5.94,2.53,17.81c0,0,0,15.62.66,27.82,0,0,1.21,21,2.75,36.84,0,0,.95,8,1.53,11.18a4.3,4.3,0,0,1-1.74,2.07l-1,.4c-.55-2.2-2-13.65-2-13.65-1.54-15.83-2.75-36.84-2.75-36.84-.66-12.2-.66-27.82-.66-27.82C45.6,24.74,43.4,18.8,43.4,18.8l-.29-3.11s2.35-.22,2.69-.33Z" style="fill:none;stroke:#656464;stroke-width:0.072999998927116px"/></g><g id="c-color"><path d="M46.71,33.17l-.65-.32.39-.29a.38.38,0,0,1,.2-.08.4.4,0,0,1,.21,0l.44.22Z" style="fill:#575757"/><path d="M48.15,33l-.65-.32.39-.29a.4.4,0,0,1,.2-.08.39.39,0,0,1,.21,0l.43.22Z" style="fill:#575757"/><path d="M47.4,32.79l.65.32-.39.29a.39.39,0,0,1-.19.08.39.39,0,0,1-.21,0l-.44-.22Z" style="fill:#575757"/><path d="M46.79,34.77l-.65-.32.39-.3a.41.41,0,0,1,.2-.08.4.4,0,0,1,.21,0l.43.22Z" style="fill:#575757"/><path d="M48.22,34.64l-.65-.32L48,34a.36.36,0,0,1,.4,0l.44.22Z" style="fill:#575757"/><path d="M47.47,34.39l.65.32-.39.29a.4.4,0,0,1-.2.08.37.37,0,0,1-.2,0l-.44-.22Z" style="fill:#575757"/><path d="M46.85,36.34,46.22,36l.4-.28a.42.42,0,0,1,.2-.07.39.39,0,0,1,.2,0l.43.23Z" style="fill:#575757"/><path d="M48.29,36.26l-.64-.34.4-.28a.36.36,0,0,1,.4,0l.43.23Z" style="fill:#575757"/><path d="M47.55,36l.64.34-.4.28a.38.38,0,0,1-.2.07.39.39,0,0,1-.2,0L47,36.4Z" style="fill:#575757"/><path d="M46.85,37.94l-.64-.34.4-.28a.4.4,0,0,1,.2-.07.38.38,0,0,1,.2,0l.43.23Z" style="fill:#575757"/><path d="M48.29,37.86l-.64-.34.4-.28a.38.38,0,0,1,.2-.07.38.38,0,0,1,.2,0l.43.23Z" style="fill:#575757"/><path d="M47.55,37.58l.64.34-.4.28a.37.37,0,0,1-.4,0L47,38Z" style="fill:#575757"/><path d="M46.84,39.57l-.62-.38.42-.26a.37.37,0,0,1,.4,0l.41.26Z" style="fill:#575757"/><path d="M48.28,39.57l-.62-.38.42-.26a.38.38,0,0,1,.2-.06.39.39,0,0,1,.2.06l.42.26Z" style="fill:#575757"/><path d="M47.56,39.25l.62.38-.42.26a.37.37,0,0,1-.2.06.38.38,0,0,1-.2-.06l-.42-.26Z" style="fill:#575757"/><path d="M46.89,41.07l-.62-.38.41-.26a.41.41,0,0,1,.2-.06.4.4,0,0,1,.2.06l.41.26Z" style="fill:#575757"/><path d="M48.33,41.07l-.61-.38.41-.26a.4.4,0,0,1,.2-.06.39.39,0,0,1,.2.06l.41.26Z" style="fill:#575757"/><path d="M47.61,40.75l.62.38-.42.26a.41.41,0,0,1-.2.06.39.39,0,0,1-.2-.06L47,41.13Z" style="fill:#575757"/><path d="M46.89,42.52l-.62-.38.41-.26a.41.41,0,0,1,.2-.06.4.4,0,0,1,.2.06l.41.26Z" style="fill:#575757"/><path d="M48.33,42.52l-.61-.38.41-.26a.37.37,0,0,1,.4,0l.41.26Z" style="fill:#575757"/><path d="M47.61,42.2l.62.38-.42.26a.39.39,0,0,1-.2.06.39.39,0,0,1-.2-.06L47,42.58Z" style="fill:#575757"/><path d="M46.84,44l-.62-.38.42-.26a.4.4,0,0,1,.2-.06.39.39,0,0,1,.2.06l.41.26Z" style="fill:#575757"/><path d="M48.28,44l-.62-.38.42-.26a.4.4,0,0,1,.2-.06.39.39,0,0,1,.2.06l.42.26Z" style="fill:#575757"/><path d="M47.56,43.66l.61.38-.41.26a.39.39,0,0,1-.2.06.38.38,0,0,1-.2-.06L46.94,44Z" style="fill:#575757"/><path d="M46.84,45.52l-.62-.38.42-.26a.38.38,0,0,1,.2-.06.37.37,0,0,1,.2.06l.41.26Z" style="fill:#575757"/><path d="M48.28,45.52l-.62-.38.42-.26a.41.41,0,0,1,.2-.06.39.39,0,0,1,.2.06l.42.26Z" style="fill:#575757"/><path d="M47.56,45.2l.61.38-.41.26a.4.4,0,0,1-.2.06.38.38,0,0,1-.2-.06l-.42-.26Z" style="fill:#575757"/><path d="M46.89,47l-.62-.38.41-.26a.37.37,0,0,1,.4,0l.41.26Z" style="fill:#575757"/><path d="M48.33,47l-.61-.38.41-.26a.36.36,0,0,1,.4,0l.41.26Z" style="fill:#575757"/><path d="M47.61,46.7l.62.38-.42.26a.4.4,0,0,1-.2.06.38.38,0,0,1-.2-.06L47,47.08Z" style="fill:#575757"/><path d="M46.94,48.52l-.61-.38.41-.26a.39.39,0,0,1,.2-.06.38.38,0,0,1,.2.06l.41.26Z" style="fill:#575757"/><path d="M48.38,48.52l-.62-.38.42-.26a.37.37,0,0,1,.4,0l.41.26Z" style="fill:#575757"/><path d="M47.66,48.21l.61.38-.41.26a.37.37,0,0,1-.2.06.38.38,0,0,1-.2-.06L47,48.59Z" style="fill:#575757"/><path d="M46.94,50l-.61-.38.41-.26a.39.39,0,0,1,.2-.06.38.38,0,0,1,.2.06l.41.26Z" style="fill:#575757"/><path d="M48.38,50l-.62-.38.42-.26a.39.39,0,0,1,.2-.06.4.4,0,0,1,.2.06l.41.26Z" style="fill:#575757"/><path d="M47.66,49.66l.61.38-.41.26a.37.37,0,0,1-.2.06.39.39,0,0,1-.2-.06L47,50Z" style="fill:#575757"/><path d="M47,51.48l-.62-.38.42-.26a.4.4,0,0,1,.2-.06.39.39,0,0,1,.2.06l.41.26Z" style="fill:#575757"/><path d="M48.42,51.48l-.62-.38.41-.26a.4.4,0,0,1,.2-.06.39.39,0,0,1,.2.06l.41.26Z" style="fill:#575757"/><path d="M47.71,51.16l.62.38-.41.26a.37.37,0,0,1-.4,0l-.41-.26Z" style="fill:#575757"/><path d="M47,53l-.62-.38.42-.26a.37.37,0,0,1,.4,0l.41.26Z" style="fill:#575757"/><path d="M48.47,53l-.62-.38.41-.26a.37.37,0,0,1,.4,0l.42.26Z" style="fill:#575757"/><path d="M47.75,52.66l.62.38L48,53.3a.39.39,0,0,1-.2.06.39.39,0,0,1-.2-.06L47.14,53Z" style="fill:#575757"/><path d="M47.09,54.51l-.63-.36.4-.27a.37.37,0,0,1,.4,0l.42.25Z" style="fill:#575757"/><path d="M48.53,54.46l-.63-.36.41-.27a.38.38,0,0,1,.2-.07.4.4,0,0,1,.2.05l.42.24Z" style="fill:#575757"/><path d="M47.8,54.16l.63.36-.4.27a.38.38,0,0,1-.2.07.37.37,0,0,1-.2-.05l-.42-.25Z" style="fill:#575757"/><path d="M47.14,56l-.63-.36.41-.27a.37.37,0,0,1,.4,0l.42.25Z" style="fill:#575757"/><path d="M48.57,55.91l-.63-.36.4-.27a.39.39,0,0,1,.2-.07.43.43,0,0,1,.2.05l.42.25Z" style="fill:#575757"/><path d="M47.85,55.62l.63.36-.41.27a.38.38,0,0,1-.2.07.39.39,0,0,1-.21-.05L47.24,56Z" style="fill:#575757"/><path d="M47.14,57.41,46.51,57l.4-.27a.37.37,0,0,1,.2-.07.4.4,0,0,1,.21.05l.42.25Z" style="fill:#575757"/><path d="M48.57,57.36,47.95,57l.41-.27a.38.38,0,0,1,.2-.07.4.4,0,0,1,.2.05l.42.25Z" style="fill:#575757"/><path d="M47.84,57.07l.63.36-.41.27a.37.37,0,0,1-.2.07.38.38,0,0,1-.21-.05l-.42-.24Z" style="fill:#575757"/><path d="M47.19,59l-.63-.36.41-.27a.39.39,0,0,1,.2-.07.4.4,0,0,1,.2.05l.42.25Z" style="fill:#575757"/><path d="M48.62,58.91,48,58.55l.4-.27a.38.38,0,0,1,.2-.07.41.41,0,0,1,.21.05l.42.25Z" style="fill:#575757"/><path d="M47.89,58.62l.63.36-.4.27a.4.4,0,0,1-.2.07.39.39,0,0,1-.2-.05L47.29,59Z" style="fill:#575757"/><path d="M47.28,60.46l-.63-.36.41-.27a.36.36,0,0,1,.4,0l.42.24Z" style="fill:#575757"/><path d="M48.72,60.41l-.63-.36.41-.27a.37.37,0,0,1,.2-.07.41.41,0,0,1,.2.05l.42.25Z" style="fill:#575757"/><path d="M48,60.12l.63.36-.41.27a.36.36,0,0,1-.2.07.4.4,0,0,1-.2-.05l-.42-.25Z" style="fill:#575757"/><path d="M47.38,62l-.63-.36.41-.27a.39.39,0,0,1,.2-.07.41.41,0,0,1,.2.05l.42.25Z" style="fill:#575757"/><path d="M48.82,61.91l-.63-.36.41-.27a.4.4,0,0,1,.2-.07.42.42,0,0,1,.2.05l.42.25Z" style="fill:#575757"/><path d="M48.09,61.61l.63.36-.4.27a.37.37,0,0,1-.2.07.38.38,0,0,1-.2-.05L47.48,62Z" style="fill:#575757"/><path d="M47.43,63.41,46.8,63l.41-.27a.36.36,0,0,1,.4,0L48,63Z" style="fill:#575757"/><path d="M48.86,63.36,48.24,63l.41-.27a.39.39,0,0,1,.2-.07.4.4,0,0,1,.2.05l.42.25Z" style="fill:#575757"/><path d="M48.14,63.06l.63.36-.41.27a.38.38,0,0,1-.2.07.39.39,0,0,1-.21-.05l-.42-.25Z" style="fill:#575757"/><path d="M47.52,64.9l-.63-.36.41-.27a.38.38,0,0,1,.2-.07.41.41,0,0,1,.2.06l.42.25Z" style="fill:#575757"/><path d="M49,64.86l-.63-.36.41-.27a.39.39,0,0,1,.2-.07.38.38,0,0,1,.2.05l.42.25Z" style="fill:#575757"/><path d="M48.23,64.56l.63.36-.41.27a.37.37,0,0,1-.2.07.38.38,0,0,1-.2-.05L47.63,65Z" style="fill:#575757"/><path d="M47.62,66.4,47,66l.41-.27a.4.4,0,0,1,.2-.07.42.42,0,0,1,.2.05l.42.25Z" style="fill:#575757"/><path d="M49.06,66.36,48.43,66l.41-.27a.38.38,0,0,1,.2-.07.39.39,0,0,1,.2.06l.42.24Z" style="fill:#575757"/><path d="M48.33,66.06l.63.36-.41.27a.37.37,0,0,1-.4,0l-.42-.25Z" style="fill:#575757"/><path d="M47.69,68l-.64-.34.4-.28a.37.37,0,0,1,.2-.07.38.38,0,0,1,.21,0l.43.23Z" style="fill:#575757"/><path d="M49.13,67.88l-.64-.34.4-.28a.37.37,0,0,1,.4,0l.43.23Z" style="fill:#575757"/><path d="M48.39,67.61l.64.34-.4.28a.37.37,0,0,1-.4,0L47.8,68Z" style="fill:#575757"/><path d="M47.78,69.42l-.64-.34.4-.28a.39.39,0,0,1,.2-.07.4.4,0,0,1,.21,0l.43.23Z" style="fill:#575757"/><path d="M49.22,69.33,48.58,69l.4-.28a.37.37,0,0,1,.4,0l.43.23Z" style="fill:#575757"/><path d="M48.48,69.06l.64.34-.4.28a.4.4,0,0,1-.2.07.39.39,0,0,1-.2,0l-.43-.23Z" style="fill:#575757"/><path d="M47.82,70.87l-.64-.34.4-.28a.37.37,0,0,1,.4,0l.43.23Z" style="fill:#575757"/><path d="M49.25,70.78l-.64-.34.4-.28a.41.41,0,0,1,.2-.07.39.39,0,0,1,.21,0l.43.23Z" style="fill:#575757"/><path d="M48.52,70.51l.64.34-.4.28a.37.37,0,0,1-.4,0l-.43-.23Z" style="fill:#575757"/><path d="M47.91,72.42l-.64-.34.4-.28a.39.39,0,0,1,.2-.07.42.42,0,0,1,.2,0l.43.23Z" style="fill:#575757"/><path d="M49.35,72.33,48.71,72l.4-.28a.37.37,0,0,1,.2-.07.42.42,0,0,1,.21,0l.43.23Z" style="fill:#575757"/><path d="M48.61,72.05l.64.34-.4.28a.38.38,0,0,1-.2.07.39.39,0,0,1-.21,0L48,72.47Z" style="fill:#575757"/><path d="M48.05,73.91l-.64-.34.4-.28a.4.4,0,0,1,.2-.07.39.39,0,0,1,.2,0l.43.23Z" style="fill:#575757"/><path d="M49.49,73.83l-.64-.34.4-.28a.39.39,0,0,1,.2-.07.37.37,0,0,1,.21,0l.43.23Z" style="fill:#575757"/><path d="M48.75,73.55l.64.34-.4.28a.37.37,0,0,1-.4,0L48.16,74Z" style="fill:#575757"/><path d="M48.19,75.41l-.64-.34.4-.28a.37.37,0,0,1,.2-.07.38.38,0,0,1,.2,0l.43.23Z" style="fill:#575757"/><path d="M49.63,75.32,49,75l.4-.28a.36.36,0,0,1,.4,0l.43.23Z" style="fill:#575757"/><path d="M48.89,75l.64.34-.4.28a.37.37,0,0,1-.2.07.38.38,0,0,1-.21,0l-.43-.23Z" style="fill:#575757"/><path d="M48.28,76.85l-.64-.34.4-.28a.37.37,0,0,1,.4,0l.43.23Z" style="fill:#575757"/><path d="M49.71,76.77l-.64-.34.4-.28a.4.4,0,0,1,.2-.07.39.39,0,0,1,.2,0l.43.23Z" style="fill:#575757"/><path d="M49,76.49l.64.34-.4.28a.37.37,0,0,1-.4,0l-.43-.23Z" style="fill:#575757"/><path d="M48.42,78.35,47.78,78l.4-.28a.41.41,0,0,1,.2-.07.4.4,0,0,1,.21,0l.43.23Z" style="fill:#575757"/><path d="M49.85,78.26l-.64-.34.4-.28a.39.39,0,0,1,.2-.07.41.41,0,0,1,.21,0l.43.23Z" style="fill:#575757"/><path d="M49.12,78l.64.34-.4.28a.41.41,0,0,1-.2.07.39.39,0,0,1-.21,0l-.43-.23Z" style="fill:#575757"/><path d="M48.56,79.84l-.64-.34.4-.28a.37.37,0,0,1,.2-.07.4.4,0,0,1,.21,0l.43.23Z" style="fill:#575757"/><path d="M50,79.76l-.64-.34.4-.28a.4.4,0,0,1,.2-.07.39.39,0,0,1,.21,0l.43.23Z" style="fill:#575757"/><path d="M49.25,79.48l.64.34-.4.28a.36.36,0,0,1-.2.07.39.39,0,0,1-.21,0l-.43-.23Z" style="fill:#575757"/><path d="M48.66,81.3,48,81l.4-.28a.36.36,0,0,1,.4,0l.43.23Z" style="fill:#575757"/><path d="M50.09,81.21l-.64-.34.4-.28a.4.4,0,0,1,.2-.07.38.38,0,0,1,.21,0l.43.23Z" style="fill:#575757"/><path d="M49.35,80.93l.64.34-.4.28a.39.39,0,0,1-.2.07.39.39,0,0,1-.21,0l-.43-.23Z" style="fill:#575757"/><path d="M48.74,82.74l-.64-.34.4-.28a.39.39,0,0,1,.2-.07.4.4,0,0,1,.21,0l.43.23Z" style="fill:#575757"/><path d="M50.18,82.66l-.64-.34.4-.28a.38.38,0,0,1,.2-.07.41.41,0,0,1,.21,0l.43.23Z" style="fill:#575757"/><path d="M49.44,82.38l.64.34-.4.28a.38.38,0,0,1-.2.08.38.38,0,0,1-.21,0l-.43-.23Z" style="fill:#575757"/><path d="M48.78,84.2l-.64-.34.4-.28a.38.38,0,0,1,.2-.07.39.39,0,0,1,.21,0l.43.23Z" style="fill:#575757"/><path d="M50.22,84.11l-.64-.34.4-.28a.38.38,0,0,1,.2-.07.37.37,0,0,1,.2,0l.43.23Z" style="fill:#575757"/><path d="M49.48,83.84l.64.34-.4.28a.37.37,0,0,1-.2.07.38.38,0,0,1-.21,0l-.43-.23Z" style="fill:#575757"/><path d="M48.88,85.74l-.64-.34.4-.28a.38.38,0,0,1,.2-.07.41.41,0,0,1,.2,0l.43.23Z" style="fill:#575757"/><path d="M50.31,85.66l-.64-.34.4-.28a.39.39,0,0,1,.2-.07.41.41,0,0,1,.21,0l.43.23Z" style="fill:#575757"/><path d="M49.57,85.38l.64.34-.4.28a.39.39,0,0,1-.2.07.38.38,0,0,1-.21,0L49,85.8Z" style="fill:#575757"/><path d="M49,87.24l-.64-.34.4-.28a.39.39,0,0,1,.2-.07.38.38,0,0,1,.21.05l.43.23Z" style="fill:#575757"/><path d="M50.45,87.15l-.64-.34.4-.28a.37.37,0,0,1,.4,0l.43.23Z" style="fill:#575757"/><path d="M49.71,86.88l.64.34-.4.28a.37.37,0,0,1-.4,0l-.43-.23Z" style="fill:#575757"/><path d="M49.15,88.73l-.64-.34.4-.28a.41.41,0,0,1,.2-.07.37.37,0,0,1,.21.05l.43.23Z" style="fill:#575757"/><path d="M50.59,88.65,50,88.31l.4-.28a.39.39,0,0,1,.2-.07.42.42,0,0,1,.21,0l.43.23Z" style="fill:#575757"/><path d="M49.85,88.37l.64.34-.4.28a.38.38,0,0,1-.2.07.39.39,0,0,1-.21,0l-.43-.23Z" style="fill:#575757"/><path d="M49.24,90.18l-.64-.34.4-.28a.4.4,0,0,1,.2-.07.38.38,0,0,1,.21,0l.43.23Z" style="fill:#575757"/><path d="M50.67,90.1,50,89.76l.4-.28a.38.38,0,0,1,.2-.07.4.4,0,0,1,.21,0l.43.23Z" style="fill:#575757"/><path d="M49.94,89.82l.64.34-.4.28a.4.4,0,0,1-.2.07.4.4,0,0,1-.21,0l-.43-.24Z" style="fill:#575757"/><path d="M49.38,91.68l-.64-.34.4-.28a.37.37,0,0,1,.2-.07.4.4,0,0,1,.21,0l.43.23Z" style="fill:#575757"/><path d="M50.81,91.59l-.64-.34.4-.28a.4.4,0,0,1,.2-.07.39.39,0,0,1,.21,0l.43.23Z" style="fill:#575757"/><path d="M50.08,91.32l.64.34-.4.28a.39.39,0,0,1-.2.07.38.38,0,0,1-.21,0l-.43-.23Z" style="fill:#575757"/><path d="M49.52,93.17l-.64-.34.4-.28a.4.4,0,0,1,.2-.07.4.4,0,0,1,.21,0l.43.23Z" style="fill:#575757"/><path d="M51,93.09l-.64-.34.4-.28a.39.39,0,0,1,.2-.07.4.4,0,0,1,.21,0l.43.23Z" style="fill:#575757"/><path d="M50.22,92.81l.64.34-.4.28a.37.37,0,0,1-.2.07.38.38,0,0,1-.21,0l-.43-.23Z" style="fill:#575757"/><path d="M49.66,94.64,49,94.32,49.4,94a.42.42,0,0,1,.2-.08.41.41,0,0,1,.21,0l.43.22Z" style="fill:#575757"/><path d="M51.09,94.52l-.65-.32.39-.29a.4.4,0,0,1,.2-.08.41.41,0,0,1,.21,0l.44.22Z" style="fill:#575757"/><path d="M50.35,94.26l.65.33-.39.29a.37.37,0,0,1-.4,0l-.44-.22Z" style="fill:#575757"/><path d="M49.79,96.09l-.65-.32.39-.3a.39.39,0,0,1,.2-.08.39.39,0,0,1,.21,0l.43.22Z" style="fill:#575757"/><path d="M51.22,96l-.65-.32.39-.29a.36.36,0,0,1,.4,0l.43.22Z" style="fill:#575757"/><path d="M50.48,95.71l.65.32-.39.29a.4.4,0,0,1-.2.08.38.38,0,0,1-.21,0l-.44-.22Z" style="fill:#575757"/><path d="M49.87,97.54l-.65-.32.39-.29a.37.37,0,0,1,.4,0l.43.22Z" style="fill:#575757"/><path d="M51.3,97.41l-.65-.32L51,96.8a.41.41,0,0,1,.2-.08.38.38,0,0,1,.21,0l.43.22Z" style="fill:#575757"/><path d="M50.56,97.16l.65.33-.39.29a.41.41,0,0,1-.19.08.43.43,0,0,1-.21,0L50,97.59Z" style="fill:#575757"/><path d="M50,99.09l-.65-.32.39-.3a.37.37,0,0,1,.4,0l.43.22Z" style="fill:#575757"/><path d="M51.44,99l-.65-.33.39-.29a.4.4,0,0,1,.2-.08.38.38,0,0,1,.21,0l.44.22Z" style="fill:#575757"/><path d="M50.7,98.7l.65.32-.39.29a.39.39,0,0,1-.2.08.38.38,0,0,1-.21,0l-.44-.22Z" style="fill:#575757"/><path d="M50.19,100.57l-.65-.32.39-.29a.37.37,0,0,1,.4,0l.43.22Z" style="fill:#575757"/><path d="M51.62,100.45l-.65-.32.39-.3a.37.37,0,0,1,.4,0l.44.22Z" style="fill:#575757"/><path d="M50.88,100.19l.65.32-.39.3a.37.37,0,0,1-.4,0l-.44-.22Z" style="fill:#575757"/><path d="M50.38,102.06l-.65-.32.39-.29a.36.36,0,0,1,.4,0l.43.22Z" style="fill:#575757"/><path d="M51.81,101.94l-.65-.32.39-.29a.38.38,0,0,1,.4,0l.44.22Z" style="fill:#575757"/><path d="M51.06,101.68l.65.32-.39.29a.42.42,0,0,1-.2.08.38.38,0,0,1-.21,0l-.43-.22Z" style="fill:#575757"/><path d="M50.51,103.51l-.65-.32.39-.29a.37.37,0,0,1,.4,0l.43.22Z" style="fill:#575757"/><path d="M51.94,103.38l-.65-.32.39-.29a.4.4,0,0,1,.2-.08.38.38,0,0,1,.21,0l.44.22Z" style="fill:#575757"/><path d="M51.19,103.13l.65.32-.39.29a.4.4,0,0,1-.2.08.4.4,0,0,1-.21,0l-.43-.22Z" style="fill:#575757"/><path d="M50.76,105l-.65-.32.39-.3a.42.42,0,0,1,.2-.08.4.4,0,0,1,.21,0l.43.22Z" style="fill:#575757"/><path d="M52.19,104.87l-.65-.32.39-.3a.43.43,0,0,1,.2-.08.4.4,0,0,1,.21,0l.44.22Z" style="fill:#575757"/><path d="M51.44,104.62l.65.32-.39.29a.42.42,0,0,1-.2.08.39.39,0,0,1-.21,0l-.44-.22Z" style="fill:#575757"/><path d="M51,108.35l-.66-.29.38-.31a.41.41,0,0,1,.19-.09.39.39,0,0,1,.21,0l.44.2Z" style="fill:#575757"/><path d="M52.45,108.16l-.66-.29.38-.31a.37.37,0,0,1,.4-.05l.45.2Z" style="fill:#575757"/><path d="M51.7,107.94l.66.3-.37.31a.37.37,0,0,1-.19.09.38.38,0,0,1-.21,0l-.44-.2Z" style="fill:#575757"/><path d="M51.32,109.87l-.67-.27.36-.33a.35.35,0,0,1,.19-.09.38.38,0,0,1,.21,0l.45.18Z" style="fill:#575757"/><path d="M52.73,109.62l-.67-.27.36-.33a.37.37,0,0,1,.19-.09.39.39,0,0,1,.21,0l.45.18Z" style="fill:#575757"/><path d="M52,109.43l.67.27-.36.33a.38.38,0,0,1-.19.09.4.4,0,0,1-.21,0l-.45-.18Z" style="fill:#575757"/><path d="M51.57,111.32l-.69-.21.33-.35a.4.4,0,0,1,.18-.11.37.37,0,0,1,.21,0l.47.15Z" style="fill:#575757"/><path d="M53,111l-.69-.21.34-.35a.37.37,0,0,1,.39-.1l.47.15Z" style="fill:#575757"/><path d="M52.19,110.83l.69.21-.34.35a.38.38,0,0,1-.18.11.37.37,0,0,1-.21,0l-.46-.15Z" style="fill:#575757"/><path d="M51.92,113l-.71-.16.31-.38a.4.4,0,0,1,.17-.12.35.35,0,0,1,.21,0l.48.11Z" style="fill:#575757"/><path d="M53.28,112.49l-.71-.16.31-.38a.38.38,0,0,1,.17-.12.36.36,0,0,1,.21,0l.47.11Z" style="fill:#575757"/><path d="M52.5,112.42l.7.16-.31.38a.4.4,0,0,1-.17.12.38.38,0,0,1-.21,0L52,113Z" style="fill:#575757"/><path d="M50.85,106.6l-.65-.32.39-.3a.4.4,0,0,1,.2-.08.38.38,0,0,1,.21,0l.43.22Z" style="fill:#575757"/><path d="M52.28,106.47l-.65-.32.39-.3a.42.42,0,0,1,.2-.08.41.41,0,0,1,.21,0l.44.22Z" style="fill:#575757"/><path d="M51.54,106.22l.65.32-.39.29a.4.4,0,0,1-.2.08.37.37,0,0,1-.21,0l-.44-.22Z" style="fill:#575757"/><path d="M46.57,31.51l-.64-.34.39-.29a.37.37,0,0,1,.4,0l.43.23Z" style="fill:#575757"/><path d="M48,31.41l-.64-.34.39-.29a.42.42,0,0,1,.2-.07.39.39,0,0,1,.21,0l.43.23Z" style="fill:#575757"/><path d="M47.26,31.14l.64.34-.39.29a.41.41,0,0,1-.2.07.38.38,0,0,1-.21,0l-.43-.23Z" style="fill:#575757"/><path d="M46.42,30l-.65-.32.39-.3a.41.41,0,0,1,.19-.08.38.38,0,0,1,.21,0l.44.21Z" style="fill:#575757"/><path d="M47.85,29.85l-.65-.31.39-.3a.41.41,0,0,1,.19-.08.4.4,0,0,1,.21,0l.44.21Z" style="fill:#575757"/><path d="M47.11,29.6l.65.32-.38.3a.39.39,0,0,1-.19.08.38.38,0,0,1-.21,0L46.53,30Z" style="fill:#575757"/><path d="M46.28,28.47l-.65-.31.39-.3a.4.4,0,0,1,.2-.08.4.4,0,0,1,.21,0l.44.21Z" style="fill:#575757"/><path d="M47.71,28.32,47.06,28l.39-.3a.41.41,0,0,1,.2-.08.39.39,0,0,1,.21,0l.44.21Z" style="fill:#575757"/><path d="M47,28.08l.65.32-.39.3a.39.39,0,0,1-.19.08.38.38,0,0,1-.21,0l-.44-.21Z" style="fill:#575757"/><path d="M46.14,27l-.66-.29.38-.31a.39.39,0,0,1,.19-.09.38.38,0,0,1,.21,0l.45.2Z" style="fill:#575757"/><path d="M47.57,26.84l-.66-.29.37-.31a.37.37,0,0,1,.4-.06l.44.2Z" style="fill:#575757"/><path d="M46.81,26.63l.66.29-.37.31a.37.37,0,0,1-.19.09.37.37,0,0,1-.21,0l-.45-.2Z" style="fill:#575757"/><path d="M45.87,25.54l-.66-.29.38-.31a.39.39,0,0,1,.19-.09.38.38,0,0,1,.21,0l.45.2Z" style="fill:#575757"/><path d="M47.3,25.34,46.63,25l.38-.31a.36.36,0,0,1,.4-.05l.45.2Z" style="fill:#575757"/><path d="M46.54,25.12l.66.29-.37.31a.39.39,0,0,1-.19.09.37.37,0,0,1-.21,0l-.45-.2Z" style="fill:#575757"/><path d="M45.58,24.18l-.66-.29.38-.31a.37.37,0,0,1,.4-.06l.44.2Z" style="fill:#575757"/><path d="M47,24l-.66-.29.38-.31a.39.39,0,0,1,.19-.09.38.38,0,0,1,.21,0l.45.2Z" style="fill:#575757"/><path d="M46.25,23.77l.66.29-.38.31a.39.39,0,0,1-.19.09.4.4,0,0,1-.21,0l-.45-.2Z" style="fill:#575757"/><path d="M45.34,22.68l-.66-.29.38-.31a.39.39,0,0,1,.19-.09.38.38,0,0,1,.21,0l.44.2Z" style="fill:#575757"/><path d="M46.76,22.49l-.66-.29.38-.31a.36.36,0,0,1,.4-.06l.44.2Z" style="fill:#575757"/><path d="M46,22.27l.66.29-.37.31a.37.37,0,0,1-.19.09.38.38,0,0,1-.21,0l-.45-.2Z" style="fill:#575757"/><path d="M45.08,21.25,44.42,21l.38-.31a.39.39,0,0,1,.19-.09.42.42,0,0,1,.21,0l.45.2Z" style="fill:#575757"/><path d="M46.51,21.06l-.66-.29.37-.31a.37.37,0,0,1,.4-.06l.44.2Z" style="fill:#575757"/><path d="M45.75,20.84l.66.29-.37.31a.38.38,0,0,1-.19.09.4.4,0,0,1-.21,0l-.45-.2Z" style="fill:#575757"/><path d="M44.56,19.78l-.66-.29.38-.31a.39.39,0,0,1,.19-.09.38.38,0,0,1,.21,0l.44.2Z" style="fill:#575757"/><path d="M46,19.58l-.66-.29L45.7,19a.36.36,0,0,1,.4-.05l.44.2Z" style="fill:#575757"/><path d="M45.23,19.36l.66.29-.38.31a.38.38,0,0,1-.19.09.38.38,0,0,1-.21,0l-.44-.2Z" style="fill:#575757"/><path d="M44.26,18.2l-.65-.32.39-.3a.39.39,0,0,1,.2-.08.39.39,0,0,1,.21,0l.44.22Z" style="fill:#575757"/><path d="M45.69,18.06,45,17.74l.39-.3a.4.4,0,0,1,.2-.08.38.38,0,0,1,.21,0l.44.22Z" style="fill:#575757"/><path d="M44.95,17.81l.65.32-.39.3a.37.37,0,0,1-.4,0l-.44-.22Z" style="fill:#575757"/><path d="M44.17,16.7l-.65-.32.39-.3A.41.41,0,0,1,44.1,16a.39.39,0,0,1,.21,0l.43.22Z" style="fill:#575757"/><path d="M45.6,16.56l-.65-.32.39-.3a.39.39,0,0,1,.2-.08.38.38,0,0,1,.21,0l.43.22Z" style="fill:#575757"/><path d="M44.85,16.31l.65.32-.39.3a.37.37,0,0,1-.4,0l-.44-.22Z" style="fill:#575757"/></g></svg>