<svg xmlns="http://www.w3.org/2000/svg" viewBox="0 0 70 125"><title>OAR-7011M_back</title><g id="a-color"><path d="M54.71,73.87c.14-3.38.36-8.89.27-11.54a80.91,80.91,0,0,0-1.4-10.91c-.54-2.3-1.31-5.1-1.58-6.95a36.39,36.39,0,0,1-.54-5.5,18.71,18.71,0,0,1,.18-1.89,3.46,3.46,0,0,0,.09-1.9A3.93,3.93,0,0,0,51.15,34h0l-.09.07a2.12,2.12,0,0,1-1.09.81c-.86.36-3.92,1.44-5.5,1.85a48.34,48.34,0,0,1-11.09,1.08,25.18,25.18,0,0,0-3.1-.11,19.53,19.53,0,0,1-2.72-.11l-.48,0v0s-.08.8-.25,1.94c.16-1.14.25-1.92.25-1.92v0a28.34,28.34,0,0,1-8.4-1.15,14,14,0,0,1-4.45-2.11,7,7,0,0,1-.24.79,2.15,2.15,0,0,0-.18,1.13c.09.31-.14.59,0,.77,0,0,0,1.57-.18,2.52s0,1.85-.14,2.71a6.46,6.46,0,0,1-.27,1.67c-.31,1.36-1,4.29-1.4,6.09a60.92,60.92,0,0,0-.77,9c0,2.47,0,5.36,0,6.59v.36c0,.91.14,3.47.27,5.37s.41,4.28.41,5.1.18,5.46.18,5.46a8.27,8.27,0,0,0,5.59,2.12c3.52,0,6.13-.5,8.39-2.71,0,0,.63-2.62,1.08-4.24s1.45-4.37,2.08-6.13a32.15,32.15,0,0,0,1.66-5.36c.32-1.85.68-2.57.59-4a14.41,14.41,0,0,1-4-3.07c-1.72-1.83-2-5.38-2.09-7.51,0,0,0,0,0,0,.13,2.13.37,5.68,2.1,7.51a14.34,14.34,0,0,0,4,3.07s.5-.14.68.63a17.14,17.14,0,0,1,.72,3.65,23.79,23.79,0,0,0,.9,4.51c.31,1.22,1.17,3.34,1.71,4.82a20.49,20.49,0,0,1,1,3.47c.27,1.31.5,3.7.72,5.64s.68,4.24.68,4.24.26.9,2.52,1.53a13.36,13.36,0,0,0,4.87.68,17.24,17.24,0,0,0,5-1,10.08,10.08,0,0,0,3.34-2,11.64,11.64,0,0,0,.85-1,32.64,32.64,0,0,1-.18-4.47C54.21,80.77,54.57,77.25,54.71,73.87ZM25.15,50a8.38,8.38,0,0,0,0,.91A8.46,8.46,0,0,1,25.15,50Zm.09-1.1v0Z" style="fill:#dcdddd"/></g><g id="no-change"><path d="M51,34.09A2.08,2.08,0,0,1,50,34.9c-.86.36-3.92,1.44-5.5,1.85a47.91,47.91,0,0,1-11.09,1.08c-3.43-.27-2.89.06-5.82-.21s-5.46-.05-8.88-1.19-4.51-2.16-4.51-2.16" style="fill:none;stroke:#231814;stroke-miterlimit:10;stroke-width:0.057000000029802px"/><path d="M27.05,37.62s-.2,1.94-.61,4.14S25,48.83,25.12,51s.37,5.68,2.1,7.51a14.43,14.43,0,0,0,4,3.06" style="fill:none;stroke:#231814;stroke-miterlimit:10;stroke-width:0.057000000029802px"/></g><g id="b-color"><path d="M42.2,37.57c0,.38.56,9.72.39,13.75a52.92,52.92,0,0,0,1.62,13,117.09,117.09,0,0,1,3.23,26.1l.15,0a13.56,13.56,0,0,0,2.47-.71,10,10,0,0,0,3.34-2,11.39,11.39,0,0,0,.85-1,33.11,33.11,0,0,1-.18-4.46c.14-1.4.5-4.92.63-8.3S55.07,65,55,62.32a81.59,81.59,0,0,0-1.4-10.91c-.54-2.3-1.31-5.1-1.58-6.94-.05-.35-.11-.74-.16-1.13l-.17-.18-3-7.8c-1.3.47-3.14,1.09-4.24,1.37-.44.11-1.23.27-2.21.43Z" style="fill:#575757"/><path d="M11.8,61.55a99.63,99.63,0,0,1,.72-13.5A18.36,18.36,0,0,0,11.82,50a61.39,61.39,0,0,0-.77,9c0,2.75,0,6,0,6.95s.14,3.47.27,5.37.41,4.28.41,5.1.18,5.46.18,5.46a5.23,5.23,0,0,0,.52.44s-.24-11-.58-20.71" style="fill:#575757"/></g><g id="c-color"><path d="M47.44,90.4a116.94,116.94,0,0,0-3.23-26.1,53,53,0,0,1-1.62-13c.17-4-.43-13.37-.39-13.75" style="fill:none;stroke:#575757;stroke-miterlimit:10;stroke-width:0.514999985694885px;stroke-dasharray:0.11400000005960464,0.11400000005960464"/><line x1="51.67" y1="43.16" x2="48.91" y2="35.41" style="fill:none;stroke:#575757;stroke-miterlimit:10;stroke-width:0.514999985694885px;stroke-dasharray:0.11400000005960464,0.11400000005960464"/><path d="M13.19,42.9c0,.11-1.66,10.77-1.39,18.66.34,9.69.7,20.32.69,20.39" style="fill:none;stroke:#575757;stroke-miterlimit:10;stroke-width:0.514999985694885px;stroke-dasharray:0.11400000005960464,0.11400000005960464"/></g></svg>