<svg id="Layer_1" data-name="Layer 1" xmlns="http://www.w3.org/2000/svg" xmlns:xlink="http://www.w3.org/1999/xlink" viewBox="0 0 162.41 131.82"><defs><style>.cls-1{fill:#211614;}.cls-12,.cls-13,.cls-2{fill:none;}.cls-13,.cls-2,.cls-3{stroke:#231916;}.cls-2{stroke-width:1.01px;}.cls-3{fill:#fff;stroke-width:0.2px;}.cls-4{fill:#231916;fill-rule:evenodd;}.cls-5{fill:#e50013;}.cls-6{fill:#ea6001;}.cls-7{fill:#fff000;}.cls-8{fill:#5cb431;}.cls-9{fill:#0085d0;}.cls-10{fill:#0063b1;}.cls-11{fill:#16136f;}.cls-12{stroke:#046eb7;stroke-width:2.19px;stroke-dasharray:0.76 0.66;}.cls-13{stroke-miterlimit:10;stroke-width:1.05px;}</style><linearGradient id="名称未設定グラデーション_44" x1="81.23" y1="7.69" x2="81.23" y2="123.01" gradientUnits="userSpaceOnUse"><stop offset="0" stop-color="#e3007f"/><stop offset="0.35" stop-color="#faed00"/><stop offset="0.69" stop-color="#2ca6e0"/><stop offset="1" stop-color="#181d61"/></linearGradient></defs><title>item1-pants-back</title><path class="cls-1" d="M5.53,127.64s31.85,8,65.48.43c0,0,2.33-11.9,3-15.25.87-4.32,2.07-9.83,7.24-10,0,0,6-1.56,8.63,10.34s2.81,14.91,2.81,14.91,31.16,7.9,65.49-1.76c0,0,10.84-77.17-4.34-110.12L151.9,2s-10.65-2.91-29.71.33c-10.53,1.77-41.34.31-41.34.31s-32,.33-40.69-1S19.24-.23,11.74,2c0,0,0,7.56-1.61,11.31C-.23,37.38-2.88,54.19,5.53,127.64Z"/><path class="cls-2" d="M5.5,127.64s31.85,8,65.48.43c0,0,2.33-11.9,3-15.25.87-4.32,2.07-9.83,7.24-10,0,0,6-1.56,8.63,10.34s2.81,14.91,2.81,14.91,31.16,7.9,65.49-1.76c0,0,10.84-77.17-4.34-110.12L151.87,2s-10.65-2.91-29.71.33c-10.53,1.77-41.34.31-41.34.31s-32,.33-40.69-1S19.21-.23,11.71,2c0,0,0,7.56-1.61,11.31C-.25,37.38-2.91,54.19,5.5,127.64Z"/><rect class="cls-3" x="9.66" y="110.4" width="25.58" height="7.09"/><path class="cls-4" d="M32.29,111.59a.37.37,0,0,0-.2-.05.39.39,0,0,0-.2.05s-.42.27-.42.27l.62.37.61-.38-.41-.25"/><path class="cls-4" d="M33.71,111.58a.52.52,0,0,0-.2-.05.64.64,0,0,0-.21.05l-.42.26.62.37.61-.37-.41-.26"/><path class="cls-4" d="M32.2,112.29l.41.25a.45.45,0,0,0,.2.06.34.34,0,0,0,.2-.06l.41-.26-.61-.37Z"/><rect class="cls-5" x="9.77" y="113.95" width="3.64" height="3.63"/><rect class="cls-6" x="13.4" y="113.95" width="3.63" height="3.63"/><rect class="cls-7" x="17.03" y="113.95" width="3.63" height="3.63"/><rect class="cls-8" x="20.66" y="113.95" width="3.64" height="3.63"/><rect class="cls-9" x="24.3" y="113.95" width="3.63" height="3.63"/><rect class="cls-10" x="27.93" y="113.95" width="3.64" height="3.63"/><rect class="cls-11" x="31.56" y="113.95" width="3.63" height="3.63"/><path class="cls-12" d="M5.5,123.66s40.19,9.89,66.36,0"/><path class="cls-12" d="M91.33,124.1s31.72,8.36,66.82-1.33"/><path class="cls-12" d="M12.7,5.55a149.92,149.92,0,0,1,29.6.79c11.79,1.56,28.85,1.3,39,1.3S113.81,8.65,123,7c14.44-2.61,30-.56,30-.56"/><path class="cls-13" d="M61.72,129.77S69.58,95.68,82.26,96.1s18.3,33.47,18.3,33.47"/><line class="cls-13" x1="81.28" y1="103.22" x2="81.51" y2="96.08"/></svg>