<svg id="Layer_1" data-name="Layer 1" xmlns="http://www.w3.org/2000/svg" xmlns:xlink="http://www.w3.org/1999/xlink" viewBox="0 0 155.59 337.9"><defs><style>.cls-1{fill:#211614;}.cls-12,.cls-2{fill:none;}.cls-3{fill:#fff;}.cls-4{fill:#231916;}.cls-14,.cls-15,.cls-4{fill-rule:evenodd;}.cls-5{fill:#e50013;}.cls-6{fill:#ea6001;}.cls-7{fill:#fff000;}.cls-8{fill:#5cb431;}.cls-9{fill:#0085d0;}.cls-10{fill:#0063b1;}.cls-11{fill:#16136f;}.cls-12,.cls-13,.cls-14,.cls-15{stroke:#231916;}.cls-12,.cls-13,.cls-14{stroke-width:1.02px;}.cls-13,.cls-14,.cls-15{fill:#211614;}.cls-15{stroke-width:1.03px;}.cls-16{fill:#b4b5b5;}</style><linearGradient id="名称未設定グラデーション_44" x1="74.09" y1="49.49" x2="77.73" y2="258.47" gradientUnits="userSpaceOnUse"><stop offset="0" stop-color="#e3007f"/><stop offset="0.35" stop-color="#faed00"/><stop offset="0.69" stop-color="#2ca6e0"/><stop offset="1" stop-color="#181d61"/></linearGradient></defs><title>Untitled-1</title><path class="cls-1" d="M46.92,3.16,34.62,7.26S17.23,38.93,13.81,44.41,6.29,56.59,7.67,73.22a34.56,34.56,0,0,1-1.36,13.7s-.68,24,3.41,32.23,11.6,31.54,10.93,48S20,197.32,11.08,211,.84,258.35.84,258.35L22,298.82s25.12,49.29,51.07,36.27c0,0,17.87-46.57,41.07-64.4s34.13-15.77,40.27-5.49c0,0,4.08-24.69-21.83-72.69a130,130,0,0,1,6.82-41.82c7.5-21.95,8.88-15.09,8.19-35,0,0-10.45-45.77-16.88-63.33C129.12,48.09,114,26,122,10.86c4.71-9,8.29-7.88,10.32-7.19s-9-2.57-9-2.57a94.31,94.31,0,0,0-16.43,14.55C99,24.25,79.28,34.6,61.53,33.22s-21.46-6.39-23-12.79C36.34,11.79,43.5,5.9,46.92,3.16Z"/><path class="cls-2" d="M139.64,150.68c6.71-19.64,8.52-16.23,8.33-29.54l.14.41-.15-.85c0-1.46-.07-3.1-.14-5,0,0-1.77-7.74-4.3-18.07-3.16-15.4-7.47-34.24-11.32-43.66-7-17.2-22.52-42.09-.31-50.46.81.23,1.17.32.64.14L132,3.48c.34-.13.65-.26,1-.38L124,.54,122.23,2a97.25,97.25,0,0,0-12,10.36c-2,1.82-4,3.69-5.81,5.52,0,0-18.67,14.85-35.9,14.37S43.87,30.34,39.2,19.79a11.79,11.79,0,0,1-.84-2.71c.11-6.83,5.85-11.57,8.81-13.94l-1.07.36c.91-.59,1.53-.91,1.53-.91L35.33,6.68,35,7.19l-.17.06-4,7.32C27.05,21.23,21.55,31,17,39.32c-1.31,2.3-2.36,4.11-3,5.08C10.64,49.87,6.54,56.58,7.92,73.2A34.56,34.56,0,0,1,6.55,86.9s-.68,24,3.41,32.23,11.6,31.54,10.93,48-.68,30.17-9.56,43.89c-6.22,9.6-8.75,29-9.71,39.7l-.16-.3,0,1.92c-.3,3.67-.4,6-.4,6l9.56,18.29A184.15,184.15,0,0,0,21.41,297.2l.83,1.6s22.94,45,47.61,37.65c-.09.43-.13.66-.13.68h0l2.87-.93.42-1,.3-.14s1-2.6,2.82-6.78c5.18-11,15.79-31.46,30-48.14h0c40.69-40.21,47.4-12.44,47.4-12.44l.24-3.88c.31.44.6.89.89,1.37,0,0,4.08-24.69-21.83-72.69A130,130,0,0,1,139.64,150.68Z"/><rect class="cls-3" x="112.47" y="234.15" width="29.99" height="8.31" transform="translate(-111.34 111.77) rotate(-33.94)"/><path class="cls-4" d="M135.5,229.58a.39.39,0,0,0-.23.06.58.58,0,0,0-.15.19l-.23.52.84,0,.35-.77-.57,0"/><path class="cls-4" d="M136.88,228.64a.36.36,0,0,0-.23.07.46.46,0,0,0-.16.19s-.23.51-.23.51l.85,0,.34-.77-.57,0"/><path class="cls-4" d="M135.87,230.32l.56,0a.43.43,0,0,0,.22-.08.28.28,0,0,0,.17-.18l.23-.53-.85,0Z"/><rect class="cls-5" x="115.97" y="245.07" width="4.26" height="4.26" transform="translate(-117.97 108.18) rotate(-33.97)"/><rect class="cls-6" x="119.5" y="242.69" width="4.25" height="4.27" transform="translate(-115.76 109.25) rotate(-33.85)"/><polygon class="cls-7" points="128.12 243.03 124.59 245.41 122.2 241.87 125.74 239.5 128.12 243.03"/><rect class="cls-8" x="126.57" y="237.94" width="4.25" height="4.26" transform="matrix(0.83, -0.56, 0.56, 0.83, -112.03, 112.59)"/><rect class="cls-9" x="130.09" y="235.56" width="4.28" height="4.27" transform="translate(-110.26 114.49) rotate(-33.98)"/><rect class="cls-10" x="133.64" y="233.18" width="4.26" height="4.26" transform="matrix(0.83, -0.56, 0.56, 0.83, -108.33, 116.07)"/><rect class="cls-11" x="137.17" y="230.8" width="4.25" height="4.26" transform="translate(-106.27 117.35) rotate(-33.91)"/><path class="cls-12" d="M47,3.16,34.69,7.26S17.29,38.93,13.87,44.41,6.35,56.59,7.73,73.22a34.56,34.56,0,0,1-1.36,13.7s-.68,24,3.41,32.23,11.6,31.54,10.93,48S20,197.32,11.15,211,.91,258.35.91,258.35l21.16,40.47s25.12,49.29,51.07,36.27c0,0,17.87-46.57,41.07-64.4s34.13-15.77,40.27-5.49c0,0,4.08-24.69-21.83-72.69a130,130,0,0,1,6.82-41.82c7.5-21.95,8.88-15.09,8.19-35,0,0-10.45-45.77-16.88-63.33C129.18,48.09,114.07,26,122,10.86c4.71-9,8.29-7.88,10.32-7.19s-9-2.57-9-2.57a94.31,94.31,0,0,0-16.43,14.55C99.08,24.25,79.34,34.6,61.6,33.22s-21.46-6.39-23-12.79C36.4,11.79,43.56,5.9,47,3.16Z"/><path class="cls-13" d="M8,65.13a79,79,0,0,1,7.16-15.9S31,23.77,33.36,19.8c0,0,.07,13.58,19.16,16.76,16.16,2.69,38.3,1,61.77-20.6,0,0-2.16,12.59,10.57,34.06,0,0,3.42,7.53,12.73,38.95,6.35,21.46,10.34,32.59,10.34,32.59S139.18,71.49,132,54,109,11.07,132.81,3.12l-9-2.56s-11.44,9.19-19.58,17.32c0,0-18.67,14.85-35.9,14.37S43.69,30.36,39,19.81s8.43-17.2,8.43-17.2L35.15,6.7S8.94,52.37,8.94,55.23,8,65.13,8,65.13"/><path class="cls-14" d="M59.22,337.36s-16.86-5-31.12-29.47C11.45,279.31,6.83,267.71.52,259.31l.75-8.87S17.56,281.07,23.79,293s24.86,40,37.31,44.32"/><path class="cls-15" d="M154.58,267.72s-6.8-27.78-48.11,12.45c-22.84,22.24-34,56.05-34,56.05l-2.91.93s5.09-30.43,34.5-62.25c29.64-32.08,47.13-20.11,51-14.84Z"/><path class="cls-15" d="M152.81,245.57s-31.35,17.23-46.34,34.6c-20.81,24.09-34,56.05-34,56.05l-2.91.93s5.53-30,34.5-62.25c19.07-21.2,31.62-22.5,47.46-36.15Z"/><path class="path-mark" d="M24.74,72.46a2.68,2.68,0,0,1-1.79-.7L19.5,69.28l6.75-3.69,5.13,3.69-4.54,2.47a4,4,0,0,1-2.1.7M20.15,61.92a4.09,4.09,0,0,0-2.08.61L13.54,65l5.12,3.68L25.41,65,22,62.52a2.85,2.85,0,0,0-1.81-.61m13.83,0a4.08,4.08,0,0,0-2.08.61L27.36,65l5.13,3.68L39.24,65l-3.44-2.47A2.87,2.87,0,0,0,34,61.92M21.86,54.48,20.49,60.7h-1.4v-.44a1.85,1.85,0,0,1-1.47.6c-1.4,0-1.9-1.12-1.42-3.27s1.49-3.26,2.87-3.26a1.24,1.24,0,0,1,1.21.59l.19-.44Zm-3.55,4.82c.59,0,1-.53,1.22-1.71s.13-1.71-.46-1.71-1,.53-1.22,1.71-.13,1.71.46,1.71m8.24.06a1,1,0,0,0,1-.72h1.56a2.79,2.79,0,0,1-2.88,2.21c-1.65,0-2.33-1.15-1.87-3.24A4.94,4.94,0,0,1,25,56a.54.54,0,0,0-.27-.06c-.4,0-.95.35-1.15,1.25l-.78,3.51H21.12l1.37-6.22h1.4v.44a2.45,2.45,0,0,1,1.81-.59l-.21,1a2.93,2.93,0,0,1,2.15-1c1.43,0,2.08,1,1.84,2.61-.06.4-.12.68-.22,1.12H25.88c-.16.87.08,1.31.68,1.31m.75-3.55c-.53,0-.89.34-1.14,1.06h1.71c.15-.68-.08-1.06-.57-1.06m7.28.31c.27-1.21-.13-1.8-1.25-1.8a2.07,2.07,0,0,0-1.47.59v-.44h-1.4L29.1,60.7h1.65l.86-3.88c.14-.62.45-.93.83-.93s.5.25.35.93l-.86,3.88h1.65l1-4.57m5.76-1.65L39,60.7h-1.4v-.44a1.86,1.86,0,0,1-1.47.6c-1.39,0-1.9-1.12-1.42-3.27s1.5-3.26,2.86-3.26a1.24,1.24,0,0,1,1.21.59l.19-.44Zm-3.55,4.82c.59,0,1-.53,1.22-1.71s.13-1.71-.47-1.71-1,.53-1.21,1.71-.13,1.71.46,1.71"/></svg>