					<svg xmlns="http://www.w3.org/2000/svg" xmlns:xlink="http://www.w3.org/1999/xlink" viewBox="0 0 32.84 100.62"><defs><style>.cls-1,.cls-10,.cls-11,.cls-13,.cls-14,.cls-9{fill:none;}.cls-2{clip-path:url(#clip-path);}.cls-4{clip-path:url(#clip-path-2);}.cls-6{clip-path:url(#clip-path-3);}.cls-8{clip-path:url(#clip-path-4);}.cls-9{stroke:#231814;stroke-width:0.1px;}.cls-10,.cls-11,.cls-13,.cls-14,.cls-9{stroke-miterlimit:10;}.cls-10,.cls-11,.cls-13,.cls-14{stroke:#008ccf;stroke-width:0.56px;}.cls-11{stroke-dasharray:0.13 0.13;}.cls-12{fill:#0076b4;}.cls-13{stroke-dasharray:0.12 0.12;}.cls-14{stroke-dasharray:0.13 0.13;}</style><clipPath id="clip-path" transform="translate(-2.18 -0.54)"><path class="cls-1" d="M3.38,55.89c-.49,4.44-1.2,9.87-.71,14.1a108.77,108.77,0,0,0,1.9,12.48c1,4.23,2.75,10.5,3.67,15.08a15.68,15.68,0,0,0,10.36-.21c0-1.13-.53-8-.6-9s-.57-4.86-.81-7.47-.11-5.18-.18-7.4A4.38,4.38,0,0,0,16.47,71a.46.46,0,0,0-.09-.09h0c-2.62-.29-3.65-1.14-5.73-6.15A74.65,74.65,0,0,1,6.9,49.79c-.53-3.63-.92-6.7-.92-6.7H6C5.25,46.37,3.82,52,3.38,55.89"/></clipPath><linearGradient id="4" x1="-272.91" y1="465.05" x2="-271.91" y2="465.05" gradientTransform="matrix(16.1, 0, 0, -16.1, 4393.76, 7557.29)" gradientUnits="userSpaceOnUse"><stop offset="0" stop-color="#383635"/><stop offset="0.26" stop-color="#312f2e"/><stop offset="0.64" stop-color="#1d1a1a"/><stop offset="1" stop-color="#050102"/></linearGradient><clipPath id="clip-path-2" transform="translate(-2.18 -0.54)"><path class="cls-1" d="M33.44,21.47s-1.16,4.18-1.85,6.24a56.58,56.58,0,0,1-3.7,9.46,155.58,155.58,0,0,0-7.4,17c-2.25,6-4.39,14.7-4,16.7h-.05A4.33,4.33,0,0,1,17,73.39c.07,2.22-.07,4.8.18,7.4s.74,6.48.81,7.47.6,7.9.6,9l.21,1.62s.92,2.26,5.85,2,5.35-1.06,5.71-1.62c0,0,.07-1.83.28-3.45s.7-5.29,1.41-8.88,2.18-12.76,2.18-17S34,58.23,33.12,54.56,30.72,46,30.23,44.27s-1.34-5-.35-7.89,3.95-10.92,4.23-11.56.92-1.2.35-2c-.23-.35-.61-.82-1-1.32Z"/></clipPath><linearGradient id="3" x1="-273.53" y1="465.76" x2="-272.53" y2="465.76" gradientTransform="matrix(18.22, 0, 0, -18.22, 4997.57, 8546.08)" gradientUnits="userSpaceOnUse"><stop offset="0" stop-color="#383637"/><stop offset="0.11" stop-color="#343233"/><stop offset="0.22" stop-color="#272526"/><stop offset="0.34" stop-color="#131011"/><stop offset="0.4" stop-color="#050102"/><stop offset="0.62" stop-color="#1d1a1b"/><stop offset="0.84" stop-color="#2f2d2e"/><stop offset="1" stop-color="#353334"/></linearGradient><clipPath id="clip-path-3" transform="translate(-2.18 -0.54)"><path class="cls-1" d="M27.89.93c-.21.19-1.92,1.69-2.19,1.9s-1.5,1-1.5,1a23.46,23.46,0,0,1-5,2.7,12.84,12.84,0,0,1-2.32.74c-3.15.13-3.94-1.45-4.1-2.19a1.74,1.74,0,0,1,.08-.84s.27-.65.48-1.1.71-1.29.71-1.29a4,4,0,0,0-1,.62s-.5.33-.65.4a2.32,2.32,0,0,0-.42.31s-.52.21-.9.4a1.68,1.68,0,0,0-.69.67c0,.06-.79,1.38-.79,1.38-1,1.78-2.63,4.63-3.36,5.95-1.06,1.9-3.53,6-3.53,8.32A17.86,17.86,0,0,0,4.26,25.6,46.77,46.77,0,0,1,5.67,33c.49,4,1.06,5.92.49,8.88-.06.34-.14.73-.24,1.15H6s.39,3.07.92,6.7a74.63,74.63,0,0,0,3.75,14.93c2.07,5,3.11,5.86,5.73,6.15h0a.38.38,0,0,1,.09.09h0c-.42-2,1.71-10.74,4-16.7,3-8,6.89-12.68,9.06-16.91,1.56-5,2.31-6.26,3-8.32s.89-7.49.89-7.49l0,0a9.27,9.27,0,0,1-1.33-2.07c-.35-1-1.27-3-2.26-5s-1.77-3-1.95-4.28h0a19.41,19.41,0,0,1-.33-3.76,15.57,15.57,0,0,1,.33-2.57,10,10,0,0,1,1.65-1.61c.56-.48.85-.29.85-.29l-.19-.21a7,7,0,0,0-.67-.5A5.54,5.54,0,0,0,28.7.58a.31.31,0,0,0-.15,0c-.24,0-.49.24-.66.39"/></clipPath><linearGradient id="3-2" x1="-275.45" y1="467.85" x2="-274.45" y2="467.85" gradientTransform="matrix(30.65, 0, 0, -30.65, 8443.28, 14375.31)" xlink:href="#3"/><clipPath id="clip-path-4" transform="translate(-2.18 -0.54)"><rect class="cls-1" width="35.02" height="102.05"/></clipPath></defs><title>OAR-7010W</title><g id="a-color"><g class="cls-2"><rect class="cls-3" y="42.55" width="16.42" height="56.29"/></g><g class="cls-4"><rect class="cls-5" x="13.92" y="20.92" width="18.92" height="79.7"/></g><g class="cls-6"><rect class="cls-7" x="0.6" width="30.65" height="70.37"/></g><g class="cls-8"><path class="cls-9" d="M16.35,70.8s.57.35.63,2.57-.07,4.79.18,7.4.74,6.49.81,7.47.6,7.89.6,9" transform="translate(-2.18 -0.54)"/><path class="cls-10" d="M6,43v.06" transform="translate(-2.18 -0.54)"/><path class="cls-10" d="M16.32,70.79h.06" transform="translate(-2.18 -0.54)"/><path class="cls-10" d="M29.88,36.38l0,.05" transform="translate(-2.18 -0.54)"/><path class="cls-10" d="M16.48,70.83v.06" transform="translate(-2.18 -0.54)"/><path class="cls-11" d="M12.84,98.47c0-.11-.45-11-.88-16.55-.29-3.79-2.86-10-4.74-14.59-.88-2.14-1.65-4-2-5.19a51,51,0,0,1-1.63-7.45" transform="translate(-2.18 -0.54)"/><path class="cls-11" d="M31.21,47.56,24.4,63.33c-1.6,3.73-7,16.06-6.69,22.65" transform="translate(-2.18 -0.54)"/><line class="cls-10" x1="8.23" y1="3.95" x2="8.29" y2="3.97"/><line class="cls-10" x1="10.66" y1="4.81" x2="10.72" y2="4.83"/><line class="cls-10" x1="21.02" y1="3.98" x2="21.08" y2="3.97"/><line class="cls-10" x1="25.9" y1="3.05" x2="25.96" y2="3.04"/></g></g><g id="b-color"><path class="cls-12" d="M18,85.8c-.29-6.05,3.6-15.84,6.19-21.9l6.92-16.13.13,0c.63,2.11,1.38,4.7,1.88,6.87C34,58.28,34.25,65.82,34.25,70s-1.48,13.39-2.18,17-1.2,7.26-1.41,8.88-.28,3.45-.28,3.45c-.35.56-.78,1.41-5.71,1.62a8.56,8.56,0,0,1-4.55-.8l0,0-.28-.18-.14-.09-.12-.1,0,0a2.4,2.4,0,0,1-.68-.82l-.2-1.57h0c0-1.13-.53-8-.6-9,0-.09,0-.21,0-.35s0-.13,0-.2c0-.24-.06-.54-.09-.86,0,0,0,0,0-.07l-.07-.63a.19.19,0,0,1,0-.05l0-.38Z" transform="translate(-2.18 -0.54)"/><path class="cls-12" d="M3.61,54.69A47.53,47.53,0,0,0,5.19,62C6.35,65.78,11.53,76.3,12,81.92s.86,16.28.86,16.28v.1a13.59,13.59,0,0,1-4.56-.74C7.35,93,5.6,86.74,4.62,82.52A108.69,108.69,0,0,1,2.71,70c-.49-4.23.21-9.66.71-14.1,0-.4.1-.83.16-1.26Z" transform="translate(-2.18 -0.54)"/></g><g id="c-color"><path class="cls-11" d="M6,43.2c.09.71.44,3.41.89,6.52a74.66,74.66,0,0,0,3.76,14.93c2,4.94,3.08,5.84,5.63,6.14" transform="translate(-2.18 -0.54)"/><path class="cls-11" d="M29.79,36.54c-2.19,4.21-6.36,9.76-9.34,17.64-2.21,5.85-4.31,14.36-4,16.58" transform="translate(-2.18 -0.54)"/><line class="cls-13" x1="8.4" y1="4.01" x2="10.6" y2="4.79"/><line class="cls-14" x1="21.2" y1="3.94" x2="25.83" y2="3.06"/></g>
					<text x="12.5" y="15" class="svg-text js-svg-text" id="d-color">Arena</text>
					<g class="path-mark js-path-mark" id="e-color"><path d="M25.2,96.67a.89.89,0,0,0,.52-.19l1.07-.66-1.59-1-1.59,1,1.07.66a.9.9,0,0,0,.52.19" transform="translate(-2.18 -0.54)"/><path d="M23.35,93.85a.93.93,0,0,0-.52.16l-1.07.66,1.59,1,1.59-1L23.87,94a.93.93,0,0,0-.52-.16" transform="translate(-2.18 -0.54)"/><path d="M27,93.85a.94.94,0,0,0-.52.16l-1.07.66,1.59,1,1.59-1L27.57,94a.93.93,0,0,0-.52-.16" transform="translate(-2.18 -0.54)"/><path d="M23,91.86,23,92a.41.41,0,0,0-.36-.16c-.37,0-.57.32-.57.87s.2.87.57.87a.4.4,0,0,0,.36-.16l0,.11h.37V91.86Zm-.29,1.29c-.16,0-.23-.14-.23-.46s.07-.46.23-.46.23.14.23.46-.07.46-.23.46" transform="translate(-2.18 -0.54)"/><path d="M24.91,93.17c-.16,0-.25-.12-.26-.35h.91c0-.12,0-.19,0-.3,0-.44-.27-.7-.65-.7a.62.62,0,0,0-.51.26v-.26a.54.54,0,0,0-.45.16l0-.12h-.37v1.66H24v-.94c0-.24.13-.33.24-.33l.07,0a1.13,1.13,0,0,0-.07.43c0,.56.25.86.69.86a.58.58,0,0,0,.64-.59h-.42a.2.2,0,0,1-.22.19m0-.95c.13,0,.22.1.22.28h-.46c0-.19.1-.28.24-.28" transform="translate(-2.18 -0.54)"/><path d="M26.87,92.3v1.22h-.44v-1c0-.18,0-.25-.15-.25s-.17.08-.17.25v1h-.44V91.86H26l0,.12a.43.43,0,0,1,.36-.16c.3,0,.44.16.44.48" transform="translate(-2.18 -0.54)"/><path d="M27.94,91.86l0,.12a.42.42,0,0,0-.36-.16c-.37,0-.58.32-.58.87s.2.87.58.87a.4.4,0,0,0,.36-.16l0,.11h.38V91.86Zm-.29,1.29c-.16,0-.23-.14-.23-.46s.07-.46.23-.46.22.14.22.46-.07.46-.22.46" transform="translate(-2.18 -0.54)"/></g></svg>
